<svg width="25" height="25" viewBox="0 0 25 25" fill="none" xmlns="http://www.w3.org/2000/svg">
<path d="M4.6875 25C4.62083 25 4.55312 24.9865 4.48854 24.9604C4.29375 24.8802 4.16667 24.6896 4.16667 24.4792V19.7917H2.60417C1.16875 19.7917 0 18.624 0 17.1875V2.60417C0 1.16771 1.16875 0 2.60417 0H22.3958C23.8312 0 25 1.16771 25 2.60417V17.1875C25 18.624 23.8312 19.7917 22.3958 19.7917H10.1115L5.05521 24.8479C4.95625 24.9469 4.82292 25 4.6875 25ZM2.60417 1.04167C1.74271 1.04167 1.04167 1.74271 1.04167 2.60417V17.1875C1.04167 18.049 1.74271 18.75 2.60417 18.75H4.6875C4.975 18.75 5.20833 18.9833 5.20833 19.2708V23.2219L9.52708 18.9031C9.625 18.8052 9.75729 18.75 9.89583 18.75H22.3958C23.2573 18.75 23.9583 18.049 23.9583 17.1875V2.60417C23.9583 1.74271 23.2573 1.04167 22.3958 1.04167H2.60417Z" fill="#0297F1"/>
<path d="M13.5416 15.625H11.4583C10.9573 15.625 10.4166 15.2406 10.4166 14.3958V13.0208C10.4166 12.4104 10.1531 11.8521 9.71247 11.5271C8.49477 10.6312 7.78435 9.19687 7.81352 7.69167C7.86039 5.21146 9.93226 3.16146 12.4312 3.125C13.6791 3.13125 14.9 3.58646 15.802 4.47708C16.6948 5.35833 17.1875 6.53229 17.1875 7.78437C17.1875 9.24479 16.4843 10.6396 15.3062 11.5146C14.8531 11.851 14.5833 12.4167 14.5833 13.0281V14.5833C14.5833 15.1583 14.1156 15.625 13.5416 15.625ZM12.4989 4.16667C12.4812 4.16667 12.4635 4.16667 12.4458 4.16667C10.5364 4.19479 8.89164 5.81875 8.85518 7.7125C8.83227 8.87917 9.38331 9.99167 10.3302 10.6885C11.0364 11.2094 11.4583 12.0812 11.4583 13.0208V14.3958C11.4583 14.551 11.4958 14.6021 11.4958 14.6021L13.5416 14.5833V13.0281C13.5416 12.0896 13.9687 11.2115 14.6843 10.6781C15.6135 9.98854 16.1458 8.93333 16.1458 7.78437C16.1458 6.81354 15.7635 5.90208 15.0698 5.21875C14.3812 4.53854 13.4698 4.16667 12.4989 4.16667Z" fill="#0297F1"/>
<path d="M14.0625 13.5417H10.9375C10.65 13.5417 10.4166 13.3083 10.4166 13.0208C10.4166 12.7333 10.65 12.5 10.9375 12.5H14.0625C14.35 12.5 14.5833 12.7333 14.5833 13.0208C14.5833 13.3083 14.35 13.5417 14.0625 13.5417Z" fill="#0297F1"/>
</svg>
