<svg width="40" height="40" viewBox="0 0 40 40" fill="none" xmlns="http://www.w3.org/2000/svg">
<path d="M37.502 18.8413H16.2386C15.5981 18.8413 15.0741 19.3653 15.0741 20.0058C15.0741 20.6463 15.5981 21.1703 16.2386 21.1703H37.502C38.1425 21.1703 38.6665 20.6463 38.6665 20.0058C38.6665 19.3653 38.1541 18.8413 37.502 18.8413Z" fill="white"/>
<path d="M6.7481 14.5908C3.75538 14.5908 1.33325 17.0129 1.33325 20.0057C1.33325 22.9984 3.75538 25.4205 6.7481 25.4205C9.74082 25.4205 12.1629 22.9984 12.1629 20.0057C12.1629 17.0129 9.74082 14.5908 6.7481 14.5908ZM6.7481 23.0915C5.03631 23.0915 3.66222 21.7058 3.66222 20.0057C3.66222 18.2939 5.04795 16.9198 6.7481 16.9198C8.44824 16.9198 9.83398 18.3055 9.83398 20.0057C9.83398 21.7058 8.44824 23.0915 6.7481 23.0915Z" fill="white"/>
<path d="M37.502 4.28516H16.2386C15.5981 4.28516 15.0741 4.80917 15.0741 5.44964C15.0741 6.0901 15.5981 6.61412 16.2386 6.61412H37.502C38.1425 6.61412 38.6665 6.0901 38.6665 5.44964C38.6665 4.80917 38.1541 4.28516 37.502 4.28516Z" fill="white"/>
<path d="M6.7481 0C3.75538 0 1.33325 2.42213 1.33325 5.41485C1.33325 8.40757 3.75538 10.8297 6.7481 10.8297C9.74082 10.8297 12.1629 8.40757 12.1629 5.41485C12.1629 2.43377 9.74082 0.0116448 6.7481 0ZM6.7481 8.51237C5.03631 8.51237 3.66222 7.12664 3.66222 5.42649C3.66222 3.72635 5.04795 2.34061 6.7481 2.34061C8.45989 2.34061 9.83398 3.72635 9.83398 5.42649C9.83398 7.12664 8.44824 8.51237 6.7481 8.51237Z" fill="white"/>
<path d="M37.502 33.3975H16.2386C15.5981 33.3975 15.0741 33.9215 15.0741 34.5619C15.0741 35.2024 15.5981 35.7264 16.2386 35.7264H37.502C38.1425 35.7264 38.6665 35.2024 38.6665 34.5619C38.6665 33.9215 38.1541 33.3975 37.502 33.3975Z" fill="white"/>
<path d="M6.7481 29.1704C3.75538 29.1704 1.33325 31.5925 1.33325 34.5853C1.33325 37.578 3.75538 40.0001 6.7481 40.0001C9.74082 40.0001 12.1629 37.578 12.1629 34.5853C12.1629 31.6042 9.74082 29.1704 6.7481 29.1704ZM6.7481 37.6828C5.03631 37.6828 3.66222 36.297 3.66222 34.5969C3.66222 32.8851 5.04795 31.511 6.7481 31.511C8.45989 31.511 9.83398 32.8968 9.83398 34.5969C9.83398 36.297 8.44824 37.6828 6.7481 37.6828Z" fill="white"/>
</svg>
