<svg width="40" height="40" viewBox="0 0 40 40" fill="none" xmlns="http://www.w3.org/2000/svg">
<path d="M34.1422 5.85781C30.3647 2.08031 25.3422 0 20 0C14.6577 0 9.63531 2.08031 5.85781 5.85781C2.08039 9.63531 0 14.6577 0 20C0 25.3423 2.08039 30.3647 5.85781 34.1422C9.63531 37.9196 14.6577 40 20 40C25.3422 40 30.3646 37.9196 34.1421 34.1422C37.9197 30.3647 40 25.3422 40 20C40 14.6578 37.9197 9.63531 34.1422 5.85781ZM20 37.6409C10.2727 37.6409 2.35906 29.7273 2.35906 20C2.35906 10.2727 10.2727 2.35906 20 2.35906C29.7272 2.35906 37.6409 10.2727 37.6409 19.9999C37.6409 29.7273 29.7273 37.6409 20 37.6409Z" fill="white"/>
<path d="M20.0001 4.66577C11.5447 4.66577 4.66577 11.5447 4.66577 20C4.66577 28.4554 11.5447 35.3343 20.0001 35.3343C28.4554 35.3343 35.3343 28.4554 35.3343 20C35.3344 11.5447 28.4555 4.66577 20.0001 4.66577ZM29.9556 28.2875L28.773 27.1048C28.3126 26.6441 27.5657 26.6443 27.1049 27.1048C26.6441 27.5654 26.6443 28.3122 27.1049 28.773L28.2875 29.9556C26.3233 31.5935 23.8687 32.6618 21.1796 32.9055V31.2273C21.1796 30.5759 20.6515 30.0477 20.0001 30.0477C19.3487 30.0477 18.8205 30.5759 18.8205 31.2273V32.9055C16.1314 32.6618 13.6769 31.5935 11.7126 29.9556L12.8952 28.773C13.3559 28.3124 13.3559 27.5655 12.8952 27.1048C12.4347 26.6443 11.6878 26.6443 11.2271 27.1048L10.0444 28.2875C8.40655 26.3233 7.33827 23.8687 7.09452 21.1795H8.77288C9.42429 21.1795 9.95241 20.6514 9.95241 20C9.95241 19.3486 9.42429 18.8205 8.77288 18.8205H7.09452C7.33827 16.1313 8.40655 13.6769 10.0444 11.7126L11.2271 12.8952C11.4574 13.1255 11.7593 13.2408 12.0611 13.2408C12.3629 13.2408 12.6648 13.1255 12.8951 12.8952C13.3557 12.4347 13.3557 11.6878 12.8951 11.2271L11.7124 10.0444C13.6766 8.40655 16.1312 7.33827 18.8204 7.09452V8.7728C18.8204 9.42421 19.3485 9.95233 19.9999 9.95233C20.6513 9.95233 21.1794 9.42421 21.1794 8.7728V7.09452C23.8686 7.33827 26.3231 8.40655 28.2873 10.0444L27.1048 11.2271C26.6441 11.6877 26.6441 12.4345 27.1048 12.8952C27.3351 13.1256 27.6369 13.2408 27.9387 13.2408C28.2405 13.2408 28.5425 13.1255 28.7727 12.8952L29.9553 11.7126C31.5932 13.6768 32.6614 16.1314 32.9052 18.8204H31.2269C30.5755 18.8204 30.0474 19.3485 30.0474 19.9999C30.0474 20.6513 30.5756 21.1795 31.227 21.1795H32.9053C32.6618 23.8687 31.5935 26.3232 29.9556 28.2875Z" fill="white"/>
<path d="M26.4621 18.8203H19.9999C19.6871 18.8203 19.3871 18.9446 19.1659 19.1659L14.5966 23.7352C14.1359 24.1959 14.1359 24.9427 14.5966 25.4034C14.8268 25.6337 15.1287 25.7489 15.4306 25.7489C15.7323 25.7489 16.0342 25.6337 16.2645 25.4034L20.4884 21.1795H26.462C27.1134 21.1795 27.6416 20.6513 27.6416 19.9999C27.6416 19.3484 27.1135 18.8203 26.4621 18.8203Z" fill="white"/>
</svg>
