<svg width="40" height="40" viewBox="0 0 40 40" fill="none" xmlns="http://www.w3.org/2000/svg">
<g clip-path="url(#clip0_28_275)">
<path d="M36.9913 10.853L36.9901 10.8219C36.9727 10.4377 36.9611 10.0312 36.9541 9.57891C36.9214 7.37341 35.1682 5.54907 32.9624 5.42578C28.3634 5.16913 24.8057 3.6695 21.7658 0.706556L21.7399 0.681837C20.7484 -0.227279 19.2527 -0.227279 18.2609 0.681837L18.2349 0.706556C15.1951 3.6695 11.6374 5.16913 7.03837 5.42609C4.83287 5.54907 3.07933 7.37341 3.04668 9.57921C3.03996 10.0284 3.02806 10.4349 3.01067 10.8219L3.00884 10.8942C2.91942 15.5838 2.80834 21.4203 4.76085 26.7178C5.83445 29.631 7.46042 32.1634 9.59329 34.245C12.0225 36.6156 15.2042 38.4976 19.0501 39.8385C19.1752 39.8822 19.3052 39.9176 19.4376 39.9441C19.6244 39.9813 19.8124 40 20.0004 40C20.1884 40 20.3766 39.9813 20.5631 39.9441C20.6956 39.9176 20.8265 39.8819 20.9522 39.8379C24.7934 38.4945 27.9718 36.6116 30.3989 34.2413C32.5309 32.1591 34.1568 29.6262 35.2313 26.7123C37.1912 21.3989 37.0804 15.5515 36.9913 10.853ZM33.0292 25.9003C30.9699 31.4838 26.7661 35.3183 20.1777 37.6223C20.1542 37.6303 20.1292 37.6373 20.1032 37.6425C20.0352 37.6559 19.9659 37.6559 19.8969 37.6422C19.8713 37.637 19.8463 37.6303 19.8231 37.6223C13.2276 35.3225 9.02109 31.4902 6.96329 25.9064C5.16368 21.0233 5.2656 15.6656 5.35563 10.9391L5.35624 10.9128C5.37455 10.5066 5.38676 10.0812 5.39347 9.6137C5.40812 8.63439 6.18815 7.82415 7.16929 7.76953C9.77182 7.62426 12.0582 7.12133 14.159 6.23205C16.2571 5.34399 18.1205 4.09217 19.8551 2.40516C19.9433 2.3307 20.0577 2.33039 20.1456 2.40516C21.8806 4.09217 23.7439 5.34399 25.8417 6.23205C27.9425 7.12133 30.2289 7.62426 32.8318 7.76953C33.8129 7.82415 34.5929 8.63439 34.6073 9.614C34.6143 10.084 34.6265 10.5094 34.6448 10.9128C34.7345 15.6449 34.834 21.0068 33.0292 25.9003Z" fill="white"/>
<path d="M19.9998 10.0322C14.503 10.0322 10.0312 14.5043 10.0312 20.0008C10.0312 25.4976 14.503 29.9697 19.9998 29.9697C25.4963 29.9697 29.9684 25.4976 29.9684 20.0008C29.9684 14.5043 25.4963 10.0322 19.9998 10.0322ZM19.9998 27.6223C15.7972 27.6223 12.3784 24.2034 12.3784 20.0008C12.3784 15.7982 15.7972 12.3793 19.9998 12.3793C24.2021 12.3793 27.621 15.7982 27.621 20.0008C27.621 24.2034 24.2021 27.6223 19.9998 27.6223Z" fill="white"/>
<path d="M22.8649 16.9058L18.2347 21.5359L16.978 20.2792C16.5196 19.8208 15.7765 19.8208 15.3182 20.2792C14.8601 20.7376 14.8601 21.4807 15.3182 21.9387L17.405 24.0255C17.6341 24.2547 17.9344 24.3692 18.2347 24.3692C18.535 24.3692 18.8353 24.2547 19.0645 24.0255L24.5247 18.5653C24.9828 18.1069 24.9828 17.3638 24.5247 16.9058C24.0663 16.4471 23.3232 16.4471 22.8649 16.9058Z" fill="white"/>
</g>
<defs>
<clipPath id="clip0_28_275">
<rect width="40" height="40" fill="white"/>
</clipPath>
</defs>
</svg>
