<svg width="40" height="40" viewBox="0 0 40 40" fill="none" xmlns="http://www.w3.org/2000/svg">
<g clip-path="url(#clip0_28_283)">
<path d="M26.3367 9.07204C26.089 9.28032 26.057 9.64994 26.2653 9.8976C27.4723 11.3332 28.1371 13.1531 28.1371 15.0219C28.1371 19.4498 24.4868 23.0522 20 23.0522C15.5132 23.0522 11.8629 19.4499 11.8629 15.0219C11.8629 10.594 15.5132 6.99169 20 6.99169C21.5426 6.99169 23.0436 7.41935 24.3408 8.22843C24.6155 8.39976 24.977 8.31593 25.1481 8.04132C25.3194 7.7667 25.2356 7.40529 24.961 7.23404C23.4775 6.30878 21.762 5.81971 20 5.81971C14.867 5.81971 10.691 9.94776 10.691 15.0218C10.691 20.0959 14.867 24.2241 20 24.2241C25.133 24.2241 29.309 20.096 29.309 15.0218C29.309 12.8775 28.5466 10.7898 27.1622 9.14337C26.954 8.89579 26.5845 8.86375 26.3367 9.07204ZM21.0139 11.1013C21.5294 11.1013 21.9488 11.5965 21.9488 12.2053C21.9488 12.5289 22.2111 12.7913 22.5347 12.7913C22.8583 12.7913 23.1207 12.5289 23.1207 12.2053C23.1207 10.9504 22.1756 9.9294 21.0139 9.9294H20.5859V9.23587C20.5859 8.91227 20.3236 8.64992 20 8.64992C19.6764 8.64992 19.414 8.91227 19.414 9.23587V9.9294H18.9861C17.8244 9.9294 16.8793 10.9504 16.8793 12.2053V13.3319C16.8793 13.9283 17.0909 14.4919 17.4752 14.9189C17.875 15.3632 18.4116 15.6079 18.9861 15.6078H19.414V18.9425H18.9861C18.4706 18.9425 18.0512 18.4472 18.0512 17.8385C18.0512 17.5149 17.7888 17.2525 17.4652 17.2525C17.1416 17.2525 16.8793 17.5149 16.8793 17.8385C16.8793 19.0934 17.8244 20.1144 18.9861 20.1144H19.414V20.8079C19.414 21.1315 19.6764 21.3938 20 21.3938C20.3236 21.3938 20.5859 21.1315 20.5859 20.8079V20.1144H21.0139C22.1756 20.1144 23.1207 19.0934 23.1207 17.8385V16.7117C23.1207 16.1153 22.9091 15.5517 22.5248 15.1247C22.1249 14.6804 21.5884 14.4358 21.0138 14.4358H20.5859V11.1011L21.0139 11.1013ZM19.414 14.436H18.9861C18.7482 14.436 18.5209 14.3291 18.3463 14.135C18.156 13.9235 18.0512 13.6384 18.0512 13.3319V12.2053C18.0512 11.5965 18.4706 11.1013 18.9861 11.1013H19.414V14.436ZM21.0139 15.6078C21.2518 15.6078 21.4791 15.7147 21.6537 15.9088C21.844 16.1202 21.9488 16.4054 21.9488 16.7118V17.8385C21.9488 18.4473 21.5294 18.9425 21.0139 18.9425H20.5859V15.6078H21.0139ZM34.5099 12.1719C34.1066 11.6374 33.7256 11.1325 33.5638 10.6432C33.3913 10.1217 33.3935 9.46799 33.3959 8.77602C33.3995 7.71904 33.4031 6.62605 32.7739 5.77737C32.1419 4.92485 31.094 4.60867 30.0806 4.30288C29.4195 4.10343 28.7951 3.91499 28.353 3.59912C27.9219 3.29122 27.5472 2.76754 27.1504 2.21316C26.53 1.34642 25.8885 0.450153 24.8605 0.12249C23.8791 -0.19025 22.8597 0.155772 21.8738 0.490544C21.2038 0.718049 20.5708 0.932975 20.0001 0.932975C19.4293 0.932975 18.7963 0.718127 18.1263 0.490544C17.1405 0.15585 16.121 -0.19025 15.1396 0.12249C14.1117 0.450153 13.4702 1.34642 12.8498 2.21316C12.453 2.76754 12.0782 3.29115 11.6472 3.59912C11.205 3.91499 10.5806 4.10343 9.91947 4.30288C8.90609 4.60867 7.85818 4.92477 7.22621 5.77737C6.59698 6.62613 6.60065 7.71912 6.60425 8.7761C6.60659 9.46806 6.60878 10.1217 6.43628 10.6432C6.27448 11.1326 5.89353 11.6375 5.49024 12.172C4.87203 12.9914 4.17139 13.9201 4.17139 15.022C4.17139 16.1239 4.87203 17.0526 5.49024 17.872C5.89353 18.4065 6.27448 18.9115 6.43628 19.4007C6.60878 19.9222 6.60659 20.5758 6.60425 21.2677C6.60065 22.3247 6.59698 23.4177 7.22621 24.2665C7.85818 25.119 8.90609 25.4352 9.91955 25.741C10.559 25.9339 11.1625 26.1175 11.6015 26.415V30.8989C11.6015 31.2225 11.8638 31.4848 12.1874 31.4848C12.511 31.4848 12.7734 31.2225 12.7734 30.8989V27.724C13.4151 28.6191 14.0705 29.5808 15.1396 29.9213C16.1211 30.2339 17.1404 29.8879 18.1263 29.5532C18.7964 29.3257 19.4293 29.1108 20.0001 29.1108C20.5708 29.1108 21.2038 29.3256 21.8738 29.5532C22.8531 29.8857 23.8608 30.24 24.8605 29.9213C25.9318 29.5798 26.5829 28.6209 27.2268 27.724V38.6334C27.2206 38.7914 27.0979 38.8707 26.9516 38.8115L20.5601 35.9354C20.2042 35.7758 19.7959 35.7758 19.4393 35.9357L13.0481 38.8117C12.9026 38.8706 12.7794 38.7907 12.7733 38.6334V33.6334C12.7733 33.3098 12.5109 33.0474 12.1873 33.0474C11.8637 33.0474 11.6014 33.3098 11.6014 33.6334V38.6334C11.5924 39.5971 12.6446 40.2889 13.5294 39.8802L19.9194 37.0047C19.9705 36.9818 20.0294 36.9817 20.0799 37.0044L26.4703 39.8801C27.3443 40.2822 28.4065 39.6054 28.3987 38.6334V26.4151C28.8377 26.1176 29.4412 25.9339 30.0806 25.741C31.094 25.4352 32.1419 25.1191 32.7739 24.2666C33.4031 23.4178 33.3995 22.3248 33.3959 21.2678C33.3935 20.5759 33.3913 19.9223 33.5638 19.4008C33.7256 18.9115 34.1066 18.4065 34.5099 17.8721C35.1281 17.0527 35.8287 16.124 35.8287 15.0221C35.8287 13.9202 35.128 12.9913 34.5099 12.1719ZM33.5743 17.1661C33.1316 17.753 32.6737 18.3598 32.4512 19.0326C32.2187 19.7354 32.2214 20.5164 32.2239 21.2717C32.2269 22.1772 32.2298 23.0325 31.8324 23.5687C31.4316 24.1093 30.6109 24.3569 29.742 24.6191C29.0189 24.8373 28.2712 25.0629 27.6716 25.4913C27.0721 25.9196 26.6317 26.5418 26.1974 27.1486C25.6649 27.8926 25.1619 28.5954 24.5046 28.8048C23.8906 29.0006 23.0939 28.7301 22.2506 28.4437C21.5199 28.1956 20.7644 27.9391 20 27.9391C19.2356 27.9391 18.4801 28.1956 17.7494 28.4437C16.9059 28.7301 16.1092 29.0006 15.4954 28.8048C14.8381 28.5954 14.3351 27.8926 13.8026 27.1486C13.3678 26.5412 12.9282 25.9198 12.3283 25.4913C11.7288 25.0629 10.9811 24.8373 10.258 24.6191C9.38907 24.357 8.56843 24.1094 8.16756 23.5687C7.77013 23.0325 7.77302 22.1773 7.77607 21.2718C7.77864 20.5165 7.78122 19.7354 7.5488 19.0327C7.32621 18.36 6.86847 17.7531 6.42565 17.1662C5.869 16.4284 5.34321 15.7314 5.34321 15.022C5.34321 14.3126 5.869 13.6156 6.42565 12.8778C6.86839 12.2909 7.32621 11.6841 7.5488 11.0113C7.78122 10.3085 7.77857 9.52752 7.77607 8.77219C7.77302 7.8667 7.77013 7.01145 8.16756 6.47527C8.56835 5.93471 9.38907 5.68705 10.2579 5.42494C10.9811 5.20673 11.7288 4.9811 12.3283 4.55273C12.9177 4.13163 13.3676 3.5031 13.8026 2.89536C14.3351 2.15136 14.8381 1.44861 15.4954 1.23915C16.1095 1.0436 16.906 1.314 17.7495 1.60033C18.4802 1.84838 19.2357 2.10495 20.0001 2.10495C20.7644 2.10495 21.5199 1.84838 22.2506 1.60033C23.0941 1.314 23.8908 1.04337 24.5047 1.23915C25.162 1.44861 25.6649 2.15136 26.1974 2.89536C26.6325 3.50318 27.0823 4.13171 27.6717 4.55273C28.2712 4.9811 29.019 5.20673 29.7421 5.42494C30.611 5.68705 31.4317 5.93471 31.8325 6.47535C32.2299 7.01145 32.227 7.86678 32.224 8.77219C32.2214 9.52752 32.2188 10.3086 32.4512 11.0113C32.6738 11.684 33.1316 12.2909 33.5744 12.8778C34.131 13.6156 34.6568 14.3126 34.6568 15.022C34.6568 15.7314 34.131 16.4283 33.5743 17.1661Z" fill="white"/>
</g>
<defs>
<clipPath id="clip0_28_283">
<rect width="40" height="40" fill="white"/>
</clipPath>
</defs>
</svg>
