<svg width="40" height="40" viewBox="0 0 40 40" fill="none" xmlns="http://www.w3.org/2000/svg">
<g clip-path="url(#clip0_28_291)">
<path d="M39.2045 7.10825C39.058 6.73848 38.7352 6.46731 38.3457 6.38684C37.9557 6.30622 37.5522 6.42716 37.271 6.70841L31.1777 12.8017L27.9018 12.0973L27.1975 8.82137L33.2908 2.72802C33.572 2.44677 33.6928 2.04286 33.6123 1.65341C33.5318 1.26387 33.2606 0.94114 32.8909 0.794422C28.7076 -0.864485 23.9486 0.119109 20.767 3.30052C19.2354 4.83208 18.1837 6.75567 17.7255 8.86348C17.3337 10.6668 17.3887 12.53 17.8811 14.2966L1.61984 30.5579C0.575234 31.6025 0 32.9913 0 34.4686C0 35.9458 0.575234 37.3347 1.61992 38.3793C2.66445 39.4239 4.05328 39.9991 5.53055 39.9991C7.00773 39.9991 8.39664 39.4239 9.44117 38.3793L25.7025 22.118C27.4691 22.6104 29.3323 22.6654 31.1355 22.2735C33.2434 21.8154 35.167 20.7636 36.6986 19.2321C39.8799 16.0506 40.8635 11.2918 39.2045 7.10825ZM35.0277 17.5613C32.6179 19.9711 28.9826 20.7958 25.7659 19.6621C25.337 19.511 24.8595 19.6194 24.5379 19.941L7.77031 36.7085C7.17203 37.3068 6.37648 37.6364 5.53039 37.6364C4.68422 37.6364 3.88883 37.3068 3.29047 36.7085C2.69219 36.1101 2.36266 35.3147 2.36266 34.4686C2.36266 33.6225 2.69219 32.827 3.29055 32.2286L20.058 15.4611C20.3796 15.1396 20.488 14.662 20.337 14.2331C19.2033 11.0166 20.0279 7.38114 22.4377 4.97137C24.1408 3.26825 26.4157 2.36216 28.7342 2.36216C29.2206 2.36216 29.7091 2.402 30.1944 2.48286L25.0717 7.60552C24.7881 7.88903 24.6677 8.29708 24.752 8.68919L25.752 13.3402C25.8497 13.7944 26.2045 14.1492 26.6586 14.2468L31.3097 15.2468C31.702 15.3311 32.1098 15.2107 32.3934 14.9272L37.516 9.8045C37.982 12.6032 37.088 15.5009 35.0277 17.5613Z" fill="white"/>
</g>
<defs>
<clipPath id="clip0_28_291">
<rect width="40" height="40" fill="white"/>
</clipPath>
</defs>
</svg>
