<svg width="40" height="40" viewBox="0 0 40 40" fill="none" xmlns="http://www.w3.org/2000/svg">
<g clip-path="url(#clip0_28_318)">
<path d="M31.6756 31.8902C31.3353 31.63 30.849 31.6953 30.589 32.0353C30.329 32.3755 30.3941 32.8619 30.7342 33.1219L32.0588 34.1343C32.1989 34.2414 32.3645 34.2936 32.5292 34.2936C32.7412 34.2936 32.9517 34.207 33.104 34.0388L35.6359 31.2432C35.9233 30.9259 35.8991 30.4357 35.5818 30.1483C35.2645 29.861 34.7742 29.8853 34.4869 30.2025L32.4337 32.4696L31.6756 31.8902Z" fill="white"/>
<path d="M39.9058 27.7525C39.897 27.3573 39.5921 27.0322 39.1984 26.9978C37.3544 26.8366 35.0853 25.5979 33.4173 23.8423C33.2709 23.6884 33.0679 23.6012 32.8555 23.6011C32.8554 23.6011 32.8554 23.6011 32.8553 23.6011C32.6431 23.6011 32.4401 23.6881 32.2937 23.8419C31.545 24.6289 30.6759 25.3116 29.7791 25.8403C28.2054 24.0835 26.2685 22.7892 23.9983 21.9745C23.9786 21.9665 23.9586 21.9594 23.9381 21.953C23.7613 21.8904 23.5824 21.8306 23.4016 21.7737C25.3214 19.859 26.6128 17.3427 26.6128 15.0854V13.8676C27.5203 13.4724 28.1568 12.5666 28.1568 11.5145C28.1568 10.4217 27.4689 9.48692 26.5037 9.11911C26.1052 5.2511 23.3801 1.99955 19.6367 0.92381C19.5261 0.396948 19.058 0 18.4988 0H15.6899C15.1506 0 14.6972 0.369586 14.5664 0.868542C12.725 1.35959 11.0431 2.40773 9.78214 3.86499C8.50223 5.34411 7.70632 7.19127 7.50417 9.1195C6.53842 9.48754 5.85033 10.422 5.85033 11.5146C5.85033 12.5671 6.48773 13.4731 7.3965 13.8681V15.0855C7.3965 17.3407 8.68811 19.8579 10.6079 21.7739C10.4323 21.8291 10.2585 21.8869 10.0866 21.9475C10.0528 21.9571 10.02 21.969 9.98794 21.983C7.44704 22.8996 5.32572 24.4169 3.66444 26.5121C2.06673 28.5273 0.930918 31.0159 0.288638 33.9093C0.0600501 34.9434 -0.111876 36.2428 0.59319 37.1207C1.2819 37.9783 2.51421 38.0882 3.51096 38.0882H8.58153C9.00964 38.0882 9.35667 37.7411 9.35667 37.3131C9.35667 36.885 9.00964 36.5379 8.58153 36.5379H3.51096C2.58367 36.5379 2.00867 36.4074 1.80194 36.15C1.58296 35.8773 1.58312 35.236 1.80217 34.2446C2.60777 30.616 4.57756 26.1756 9.32349 23.9337C9.17754 26.5524 10.5964 28.264 11.4983 29.3504C11.6364 29.5167 11.8376 29.6178 12.0535 29.6293C12.2692 29.6413 12.4802 29.5618 12.6351 29.4111L17.0036 25.1627L21.3743 29.4112C21.5193 29.5521 21.7132 29.6305 21.9145 29.6305C21.9284 29.6305 21.9423 29.6301 21.9563 29.6293C22.1722 29.6177 22.3735 29.5164 22.5115 29.3498C23.4121 28.2625 24.8289 26.5499 24.6843 23.9367C26.0611 24.5899 27.2776 25.4634 28.3238 26.5515C27.6991 26.7933 27.0849 26.9478 26.5121 26.9978C26.1186 27.0322 25.8139 27.357 25.8047 27.752C25.7398 30.5233 26.2017 32.5088 27.4514 34.8328C27.462 34.8525 27.8843 35.6095 28.5423 36.5381H15.5991C15.171 36.5381 14.824 36.8852 14.824 37.3132C14.824 37.7412 15.171 38.0884 15.5991 38.0884H29.7733C30.7078 39.1211 31.81 40.0002 32.8552 40.0002C35.3769 40.0002 38.2313 34.8845 38.2587 34.8333C39.5064 32.509 39.9681 30.5238 39.9058 27.7525ZM24.9214 8.95176H20.6537C19.8474 6.84548 19.6948 5.10863 19.6675 2.55896C22.4633 3.54781 24.4958 6.01476 24.9214 8.95176ZM16.0771 1.55028H18.1115C18.1164 4.55068 18.1925 6.58278 19.0047 8.95176H15.1855C15.9963 6.58271 16.0723 4.55037 16.0771 1.55028ZM14.522 2.49781C14.4964 5.08103 14.3482 6.82858 13.5369 8.95184H9.08746C9.5296 5.97662 11.6684 3.44278 14.522 2.49781ZM8.41534 10.502H13.6009C13.6465 10.5391 13.6907 10.5438 13.7278 10.502H25.594C26.1523 10.502 26.6065 10.9562 26.6065 11.5146C26.6065 12.0742 26.1524 12.5294 25.594 12.5294H8.41534C7.85585 12.5294 7.40061 12.0742 7.40061 11.5146C7.40061 10.9563 7.85577 10.502 8.41534 10.502ZM8.94678 15.0855V14.0796H25.0624V15.0855C25.0624 18.0408 22.1994 21.6958 18.9354 22.9074C17.5072 23.4382 16.4933 23.4377 15.0618 22.9057C11.8042 21.6891 8.94678 18.0348 8.94678 15.0855ZM12.1638 27.7069C11.3615 26.6596 10.589 25.2845 10.9603 23.2884C11.3022 23.178 11.6555 23.0773 12.0218 22.9883C12.8035 23.5617 13.6465 24.0321 14.5205 24.3585C14.8018 24.463 15.0725 24.5491 15.3372 24.6207L12.1638 27.7069ZM21.8448 27.7065L18.6693 24.6198C18.9307 24.5489 19.1978 24.4638 19.4752 24.3607C20.3535 24.0347 21.2006 23.5634 21.9859 22.9881C22.3478 23.0762 22.7016 23.1759 23.0469 23.2877C23.419 25.281 22.6468 26.6575 21.8448 27.7065ZM36.8925 34.1005C35.9758 35.8113 33.8291 38.4497 32.8552 38.4497C31.8813 38.4497 29.7346 35.8113 28.8174 34.0994C27.793 32.1947 27.3727 30.6064 27.3499 28.4438C28.1861 28.2846 29.0567 27.9726 29.9127 27.5368C29.9428 27.5237 29.9721 27.5083 30.0008 27.491C31.0005 26.9715 31.9781 26.2838 32.8549 25.4666C34.5058 27.0068 36.5157 28.093 38.3599 28.4438C38.3355 30.6068 37.9152 32.1954 36.8925 34.1005Z" fill="white"/>
<path d="M12.0902 36.5381C11.6621 36.5381 11.3151 36.8852 11.3151 37.3132C11.3151 37.7413 11.6621 38.0884 12.0902 38.0884H12.0946C12.5227 38.0884 12.8675 37.7413 12.8675 37.3132C12.8675 36.8852 12.5183 36.5381 12.0902 36.5381Z" fill="white"/>
</g>
<defs>
<clipPath id="clip0_28_318">
<rect width="40" height="40" fill="white"/>
</clipPath>
</defs>
</svg>
