<svg width="25" height="25" viewBox="0 0 25 25" fill="none" xmlns="http://www.w3.org/2000/svg">
<path d="M21.0519 8.55188C21.0519 3.82881 17.2231 0 12.5 0C7.77693 0 3.94812 3.82881 3.94812 8.55188C2.72711 8.70392 1.5726 9.50209 1.5726 11.355V15.821C1.5726 17.9114 3.03592 18.6716 4.42323 18.6716H5.80103C6.06341 18.6716 6.27614 18.4589 6.27614 18.1965V8.99848C6.27614 8.7361 6.06341 8.52338 5.80103 8.52338H4.89833C4.89833 4.32511 8.30174 0.921703 12.5 0.921703C16.6983 0.921703 20.1017 4.32511 20.1017 8.52338H19.199C18.9366 8.52338 18.7239 8.7361 18.7239 8.99848V18.1823C18.7239 18.4446 18.9366 18.6574 19.199 18.6574H20.1017C19.9686 21.9213 18.4008 22.6862 15.2699 22.824V22.5057C15.2699 21.9809 14.8445 21.5555 14.3197 21.5555H11.3312C10.8064 21.5555 10.381 21.9809 10.381 22.5057V24.0498C10.381 24.5746 10.8064 25 11.3312 25H14.3292C14.854 25 15.2794 24.5746 15.2794 24.0498V23.7742C18.2915 23.6365 20.8951 23.0141 21.0519 18.6288C22.2729 18.4768 23.4274 17.6786 23.4274 15.8257V11.3597C23.4274 9.49734 22.2777 8.70392 21.0519 8.55188ZM5.32593 9.44033V17.7071H4.39947C3.69632 17.7071 2.49906 17.4601 2.49906 15.8067V11.3407C2.49906 9.70164 3.68207 9.44033 4.39947 9.44033H5.32593ZM14.3292 23.3324V24.0545H11.3312V22.5105H14.3292V23.3324ZM22.4772 15.821C22.4772 17.4601 21.2942 17.7214 20.5768 17.7214H19.6741V9.47359H20.6005C21.3037 9.47359 22.501 9.72064 22.501 11.374L22.4772 15.821Z" fill="#0297F1"/>
</svg>
