<svg width="25" height="26" viewBox="0 0 25 26" fill="none" xmlns="http://www.w3.org/2000/svg">
<path d="M12.3987 6.87695C11.7806 6.87695 11.1764 7.05962 10.6625 7.40186C10.1486 7.7441 9.74808 8.23054 9.51156 8.79966C9.27504 9.36878 9.21315 9.99503 9.33373 10.5992C9.45431 11.2034 9.75193 11.7584 10.189 12.1939C10.626 12.6295 11.1828 12.9262 11.789 13.0463C12.3952 13.1665 13.0235 13.1048 13.5946 12.8691C14.1656 12.6334 14.6536 12.2342 14.997 11.722C15.3404 11.2098 15.5237 10.6076 15.5237 9.99157C15.5227 9.16581 15.1932 8.37414 14.6073 7.79024C14.0215 7.20634 13.2272 6.87789 12.3987 6.87695ZM12.3987 11.5489C12.0896 11.5489 11.7876 11.4575 11.5306 11.2864C11.2737 11.1153 11.0734 10.8721 10.9551 10.5875C10.8369 10.303 10.8059 9.98984 10.8662 9.68775C10.9265 9.38567 11.0753 9.10818 11.2938 8.89039C11.5123 8.67259 11.7908 8.52427 12.0939 8.46418C12.3969 8.4041 12.7111 8.43494 12.9966 8.55281C13.2821 8.67067 13.5262 8.87028 13.6979 9.12638C13.8695 9.38247 13.9612 9.68356 13.9612 9.99157C13.9607 10.4044 13.7959 10.8003 13.503 11.0922C13.2101 11.3842 12.8129 11.5484 12.3987 11.5489Z" fill="white"/>
<path d="M18.4036 4.00176C16.9189 2.52233 14.9369 1.6435 12.8403 1.53486C10.7437 1.42622 8.68099 2.09549 7.05034 3.4135C5.4197 4.7315 4.33669 6.6048 4.01035 8.67185C3.68401 10.7389 4.13746 12.8532 5.28319 14.6066L11.1869 23.6396C11.3182 23.8406 11.4979 24.0058 11.7095 24.1201C11.9211 24.2344 12.158 24.2943 12.3986 24.2943C12.6393 24.2943 12.8762 24.2344 13.0878 24.1201C13.2994 24.0058 13.4791 23.8406 13.6104 23.6396L19.5143 14.6066C20.5774 12.98 21.0472 11.0387 20.845 9.10795C20.6428 7.17721 19.7808 5.37442 18.4036 4.00176ZM18.2051 13.7565L12.3987 22.6405L6.59218 13.7565C4.81483 11.0371 5.19604 7.39791 7.49857 5.10292C8.14206 4.46156 8.90599 3.9528 9.74675 3.60569C10.5875 3.25859 11.4886 3.07994 12.3987 3.07994C13.3087 3.07994 14.2098 3.25859 15.0506 3.60569C15.8914 3.9528 16.6553 4.46156 17.2988 5.10292C19.6013 7.39791 19.9825 11.0371 18.2051 13.7565Z" fill="white"/>
</svg>
