<svg width="25" height="25" viewBox="0 0 25 25" fill="none" xmlns="http://www.w3.org/2000/svg">
<path d="M20.3125 22.5809H20.1797C4.82812 21.7011 2.64843 8.79098 2.34374 4.85099C2.31919 4.54465 2.35553 4.2365 2.45068 3.94418C2.54582 3.65186 2.69791 3.38113 2.89821 3.14749C3.09852 2.91385 3.34311 2.72191 3.61797 2.58265C3.89283 2.44338 4.19257 2.35955 4.49999 2.33594H8.80468C9.11762 2.33564 9.42343 2.42899 9.68252 2.60392C9.94161 2.77885 10.142 3.02728 10.2578 3.31704L11.4453 6.22921C11.5596 6.51229 11.588 6.82261 11.5269 7.12162C11.4658 7.42063 11.3179 7.69516 11.1016 7.9111L9.43749 9.58521C9.69743 11.0574 10.4048 12.4146 11.464 13.473C12.5231 14.5314 13.8829 15.24 15.3594 15.503L17.0547 13.8289C17.2746 13.6156 17.5526 13.4717 17.8541 13.4149C18.1556 13.3581 18.4672 13.3911 18.75 13.5096L21.6953 14.6854C21.9816 14.8044 22.226 15.0058 22.3971 15.2637C22.5682 15.5216 22.6584 15.8245 22.6562 16.1337V20.245C22.6562 20.8645 22.4093 21.4587 21.9698 21.8968C21.5302 22.3348 20.9341 22.5809 20.3125 22.5809ZM4.68749 3.89325C4.48029 3.89325 4.28158 3.97528 4.13507 4.12131C3.98856 4.26734 3.90624 4.46539 3.90624 4.6719V4.73419C4.26562 9.34383 6.57031 20.245 20.2656 21.0236C20.3683 21.03 20.4711 21.016 20.5684 20.9826C20.6656 20.9492 20.7552 20.8971 20.8322 20.8291C20.9091 20.761 20.9718 20.6786 21.0167 20.5864C21.0616 20.4942 21.0878 20.394 21.0937 20.2917V16.1337L18.1484 14.9579L15.9062 17.1771L15.5312 17.1304C8.73437 16.2816 7.81249 9.50734 7.81249 9.43727L7.76562 9.06351L9.98437 6.82877L8.81249 3.89325H4.68749Z" fill="white"/>
</svg>
