<svg width="25" height="25" viewBox="0 0 25 25" fill="none" xmlns="http://www.w3.org/2000/svg">
<g clip-path="url(#clip0_22_109)">
<path d="M19.7579 15.4868C19.2461 14.9539 18.6287 14.669 17.9745 14.669C17.3255 14.669 16.7028 14.9487 16.1699 15.4816L14.5026 17.1436C14.3654 17.0698 14.2282 17.0012 14.0963 16.9326C13.9063 16.8376 13.7269 16.7479 13.5739 16.6529C12.0121 15.661 10.5927 14.3682 9.23143 12.6956C8.57187 11.8619 8.12865 11.1602 7.80679 10.4479C8.23946 10.0521 8.64047 9.64057 9.03092 9.24484C9.17866 9.0971 9.3264 8.94408 9.47414 8.79634C10.5822 7.68829 10.5822 6.25311 9.47414 5.14506L8.03368 3.7046C7.87011 3.54103 7.70126 3.37218 7.54297 3.20334C7.22639 2.8762 6.89397 2.53851 6.551 2.22192C6.03919 1.71539 5.42713 1.44629 4.7834 1.44629C4.13968 1.44629 3.51706 1.71539 2.98942 2.22192C2.98414 2.2272 2.98414 2.2272 2.97887 2.23248L1.18488 4.04229C0.509502 4.71767 0.124323 5.54079 0.0399002 6.49582C-0.086734 8.03654 0.367038 9.47173 0.715282 10.4109C1.57006 12.7167 2.84696 14.8537 4.75174 17.1436C7.06282 19.9032 9.84349 22.0824 13.0199 23.6178C14.2335 24.1929 15.8533 24.8736 17.6631 24.9897C17.774 24.995 17.89 25.0002 17.9956 25.0002C19.2144 25.0002 20.238 24.5623 21.0401 23.6917C21.0453 23.6811 21.0559 23.6759 21.0612 23.6653C21.3355 23.3329 21.6521 23.0321 21.9845 22.7103C22.2114 22.4939 22.4436 22.267 22.6705 22.0296C23.1928 21.4861 23.4672 20.853 23.4672 20.204C23.4672 19.5497 23.1876 18.9218 22.6546 18.3942L19.7579 15.4868ZM21.6468 21.0429C21.6416 21.0429 21.6416 21.0482 21.6468 21.0429C21.4411 21.2645 21.23 21.465 21.0031 21.6866C20.6602 22.0138 20.3119 22.3567 19.9848 22.7419C19.4519 23.3118 18.824 23.5809 18.0008 23.5809C17.9217 23.5809 17.8373 23.5809 17.7581 23.5756C16.191 23.4753 14.7347 22.8633 13.6425 22.3409C10.6561 20.8952 8.03368 18.8426 5.85452 16.2414C4.05526 14.0728 2.85223 12.0677 2.05549 9.91494C1.56479 8.60112 1.38539 7.57749 1.46453 6.61191C1.5173 5.99456 1.75474 5.48275 2.19268 5.04481L3.99194 3.24555C4.25048 3.00283 4.52486 2.87092 4.79396 2.87092C5.12637 2.87092 5.39547 3.07143 5.56431 3.24027C5.56959 3.24555 5.57487 3.25083 5.58014 3.2561C5.902 3.55686 6.20804 3.86817 6.5299 4.20058C6.69347 4.36943 6.86231 4.53827 7.03116 4.71239L8.47162 6.15286C9.03092 6.71216 9.03092 7.22925 8.47162 7.78855C8.31861 7.94156 8.17087 8.09458 8.01785 8.24232C7.57463 8.69609 7.15252 9.11821 6.69347 9.52977C6.68292 9.54032 6.67236 9.5456 6.66709 9.55615C6.21331 10.0099 6.29774 10.4531 6.39271 10.7539C6.39799 10.7697 6.40326 10.7856 6.40854 10.8014C6.78317 11.7089 7.31081 12.5637 8.11283 13.5821L8.1181 13.5873C9.57439 15.3813 11.1098 16.7796 12.8036 17.8507C13.0199 17.9879 13.2415 18.0987 13.4526 18.2042C13.6425 18.2992 13.8219 18.3889 13.9749 18.4839C13.996 18.4944 14.0171 18.5102 14.0382 18.5208C14.2176 18.6105 14.3865 18.6527 14.5606 18.6527C14.9986 18.6527 15.2729 18.3783 15.3626 18.2886L17.1672 16.4841C17.3466 16.3047 17.6315 16.0884 17.9639 16.0884C18.291 16.0884 18.5601 16.2941 18.7237 16.4735C18.729 16.4788 18.729 16.4788 18.7343 16.4841L21.6416 19.3914C22.185 19.9296 22.185 20.4836 21.6468 21.0429Z" fill="#0297F1"/>
<path d="M13.5106 5.947C14.893 6.17916 16.1488 6.83344 17.1513 7.83596C18.1539 8.83848 18.8029 10.0943 19.0403 11.4767C19.0983 11.8249 19.3991 12.0676 19.7421 12.0676C19.7843 12.0676 19.8212 12.0624 19.8634 12.0571C20.2539 11.9938 20.5124 11.6244 20.4491 11.234C20.1642 9.56135 19.3727 8.03646 18.1644 6.82816C16.9561 5.61986 15.4312 4.8284 13.7586 4.54347C13.3682 4.48015 13.0041 4.7387 12.9355 5.12388C12.8669 5.50906 13.1202 5.88368 13.5106 5.947Z" fill="#0297F1"/>
<path d="M24.971 11.0283C24.5014 8.27398 23.2034 5.76768 21.2089 3.77319C19.2144 1.7787 16.7081 0.480705 13.9538 0.0111038C13.5686 -0.0574897 13.2046 0.206331 13.136 0.59151C13.0726 0.981965 13.3312 1.34604 13.7216 1.41463C16.1805 1.83147 18.4229 2.99756 20.2064 4.77571C21.9898 6.55914 23.1506 8.80162 23.5675 11.2604C23.6255 11.6087 23.9263 11.8514 24.2692 11.8514C24.3114 11.8514 24.3484 11.8461 24.3906 11.8408C24.7758 11.7828 25.0396 11.4134 24.971 11.0283Z" fill="#0297F1"/>
</g>
<defs>
<clipPath id="clip0_22_109">
<rect width="25" height="25" fill="white"/>
</clipPath>
</defs>
</svg>
