<svg width="25" height="25" viewBox="0 0 25 25" fill="none" xmlns="http://www.w3.org/2000/svg">
<path d="M21.4057 11.216C21.363 11.2159 21.3207 11.2078 21.281 11.192L18.7337 10.1785C18.6722 10.1541 18.6191 10.1121 18.5813 10.0578C18.5434 10.0035 18.5223 9.93928 18.5206 9.87309C18.5189 9.8069 18.5367 9.74167 18.5717 9.68551C18.6068 9.62935 18.6576 9.58473 18.7178 9.55721C18.9683 9.44195 19.165 9.23507 19.2675 8.97917C19.3195 8.84814 19.3452 8.70815 19.3431 8.56719C19.3409 8.42623 19.3111 8.28708 19.2551 8.15768C19.1992 8.02828 19.1183 7.91118 19.017 7.81308C18.9158 7.71497 18.7962 7.63778 18.6651 7.58592C18.4007 7.48074 18.1053 7.48477 17.8439 7.59713C17.5824 7.70949 17.3762 7.92101 17.2705 8.18525C17.2188 8.31122 17.1925 8.44614 17.1929 8.58231C17.1934 8.71847 17.2207 8.85321 17.2732 8.97883C17.2994 9.04018 17.3069 9.10792 17.2946 9.17351C17.2824 9.23909 17.251 9.29958 17.2044 9.34735C17.1578 9.39511 17.0982 9.42802 17.0329 9.44192C16.9677 9.45582 16.8998 9.45009 16.8378 9.42545L14.2807 8.40923C14.2394 8.39285 14.2017 8.36849 14.1699 8.33754C14.138 8.30659 14.1126 8.26966 14.095 8.22887C14.0774 8.18808 14.0681 8.14422 14.0675 8.09981C14.0669 8.05539 14.075 8.0113 14.0915 7.97004L14.8793 5.98862C14.6594 5.98739 14.4417 5.94488 14.2374 5.86329C13.9991 5.7676 13.7848 5.62062 13.6098 5.43278C13.4347 5.24494 13.3031 5.02085 13.2244 4.77644C13.1457 4.53202 13.1217 4.27326 13.1543 4.01855C13.1868 3.76384 13.2751 3.51942 13.4127 3.30266C13.5504 3.08589 13.7341 2.90209 13.9508 2.76432C14.1675 2.62655 14.4118 2.53819 14.6665 2.5055C14.9212 2.47282 15.18 2.49662 15.4245 2.57521C15.6689 2.6538 15.8931 2.78526 16.081 2.96025L16.8709 0.976125C16.8873 0.93487 16.9117 0.897255 16.9426 0.865431C16.9736 0.833608 17.0105 0.8082 17.0513 0.79066C17.0921 0.773121 17.136 0.763794 17.1803 0.763213C17.2247 0.762631 17.2688 0.770808 17.3101 0.787273L23.6925 3.3241C23.9393 3.42254 24.1369 3.6148 24.2422 3.85874C24.3474 4.10267 24.3517 4.37839 24.254 4.62545L21.7202 11.0008C21.6955 11.0641 21.6523 11.1186 21.5962 11.157C21.5401 11.1954 21.4737 11.2159 21.4057 11.216ZM19.5476 9.77612L21.2161 10.439L23.6253 4.37748C23.656 4.29692 23.6541 4.20755 23.62 4.12837C23.5858 4.04919 23.5222 3.98645 23.4425 3.95349L17.3742 1.53998L16.4864 3.77815C16.4619 3.8399 16.4198 3.89307 16.3653 3.931C16.3108 3.96894 16.2463 3.98996 16.1799 3.99144C16.1134 3.99292 16.0481 3.97479 15.9919 3.93931C15.9358 3.90384 15.8913 3.8526 15.8641 3.792C15.7768 3.60063 15.6351 3.43914 15.4567 3.32761C15.2783 3.21608 15.0711 3.15943 14.8608 3.1647C14.6505 3.16997 14.4464 3.23692 14.2738 3.35724C14.1013 3.47756 13.9679 3.64593 13.8902 3.84144C13.8125 4.03695 13.7941 4.25097 13.837 4.4569C13.88 4.66284 13.9825 4.85161 14.1319 4.99974C14.2813 5.14788 14.4709 5.24886 14.6771 5.29013C14.8834 5.3314 15.0973 5.31114 15.2922 5.23187C15.3535 5.20661 15.4209 5.19998 15.486 5.21279C15.5511 5.2256 15.611 5.2573 15.6582 5.30392C15.7054 5.35054 15.7378 5.41002 15.7514 5.47495C15.765 5.53988 15.7592 5.60738 15.7347 5.66903L14.8442 7.90518L16.5172 8.57038C16.5183 8.28498 16.5892 8.00419 16.7235 7.75241C16.8579 7.50063 17.0518 7.2855 17.2883 7.12571C17.5248 6.96593 17.7967 6.86634 18.0804 6.83559C18.3642 6.80485 18.6511 6.84389 18.9163 6.94931C19.1816 7.05474 19.417 7.22335 19.6022 7.4405C19.7874 7.65765 19.9168 7.91676 19.979 8.19529C20.0413 8.47381 20.0345 8.76334 19.9594 9.03867C19.8843 9.314 19.743 9.56681 19.5479 9.77511L19.5476 9.77612Z" fill="#0297F1"/>
<path d="M20.2364 14.6185C20.1921 14.6187 20.1481 14.6102 20.107 14.5934C20.066 14.5766 20.0286 14.5519 19.9971 14.5207C19.9656 14.4894 19.9405 14.4523 19.9234 14.4114C19.9062 14.3705 19.8973 14.3266 19.8971 14.2822C19.8969 14.2379 19.9054 14.1939 19.9222 14.1528C19.939 14.1118 19.9637 14.0744 19.9949 14.0429C20.0262 14.0114 20.0633 13.9863 20.1042 13.9692C20.1451 13.952 20.189 13.9431 20.2334 13.9429H20.2364C20.326 13.9429 20.412 13.9785 20.4753 14.0418C20.5387 14.1052 20.5743 14.1911 20.5743 14.2807C20.5743 14.3703 20.5387 14.4562 20.4753 14.5196C20.412 14.5829 20.326 14.6185 20.2364 14.6185Z" fill="#0297F1"/>
<path d="M16.7329 14.6186C16.6433 14.619 16.5572 14.5838 16.4935 14.5208C16.4298 14.4578 16.3938 14.372 16.3933 14.2824C16.3929 14.1928 16.4281 14.1067 16.4911 14.043C16.5541 13.9793 16.6399 13.9433 16.7295 13.9429H16.7329C16.8225 13.9429 16.9084 13.9785 16.9718 14.0418C17.0351 14.1052 17.0707 14.1911 17.0707 14.2807C17.0707 14.3703 17.0351 14.4562 16.9718 14.5196C16.9084 14.583 16.8225 14.6186 16.7329 14.6186Z" fill="#0297F1"/>
<path d="M16.7293 14.6202C16.64 14.6202 16.5544 14.5849 16.4911 14.522C16.4278 14.459 16.392 14.3736 16.3915 14.2844C16.3911 14.2234 16.4072 14.1634 16.4381 14.1108C16.4691 14.0583 16.5137 14.015 16.5672 13.9858C16.6207 13.9565 16.6811 13.9423 16.7421 13.9446C16.8031 13.9469 16.8623 13.9657 16.9134 13.9989C16.9645 14.0322 17.0057 14.0786 17.0326 14.1334C17.0595 14.1882 17.071 14.2492 17.066 14.31C17.0609 14.3708 17.0396 14.4291 17.0041 14.4787C16.9686 14.5283 16.9203 14.5674 16.8644 14.5918C16.8219 14.6107 16.7758 14.6203 16.7293 14.6202Z" fill="#0297F1"/>
<path d="M19.3814 24.2366H1.86718C1.55166 24.2367 1.24899 24.1116 1.0256 23.8888C0.80221 23.6659 0.676345 23.3636 0.675629 23.0481V5.53084C0.676881 5.2158 0.803025 4.91411 1.0264 4.69194C1.24977 4.46977 1.55214 4.34525 1.86718 4.3457H10.6209C10.7105 4.3457 10.7964 4.3813 10.8598 4.44465C10.9231 4.50801 10.9587 4.59394 10.9587 4.68354V8.18624C10.959 8.25289 10.9395 8.31811 10.9028 8.37372C10.8661 8.42933 10.8137 8.47284 10.7523 8.49877C10.691 8.5247 10.6233 8.53189 10.5578 8.51944C10.4923 8.50699 10.432 8.47546 10.3844 8.42881C10.1127 8.16598 9.74893 8.01988 9.3709 8.02172C8.98311 8.02172 8.6112 8.17577 8.33699 8.44998C8.06279 8.72418 7.90874 9.09609 7.90874 9.48388C7.90874 9.87167 8.06279 10.2436 8.33699 10.5178C8.6112 10.792 8.98311 10.946 9.3709 10.946C9.7487 10.9483 10.1124 10.8028 10.3844 10.5406C10.432 10.494 10.4923 10.4625 10.5578 10.45C10.6233 10.4376 10.691 10.4448 10.7523 10.4707C10.8137 10.4966 10.8661 10.5401 10.9028 10.5957C10.9395 10.6513 10.959 10.7166 10.9587 10.7832V13.9447H13.4891C13.336 13.6183 13.2678 13.2586 13.2908 12.8988C13.3138 12.539 13.4272 12.1909 13.6205 11.8866C13.8139 11.5824 14.0809 11.3318 14.3969 11.1583C14.7128 10.9847 15.0675 10.8937 15.428 10.8937C15.7885 10.8937 16.1432 10.9847 16.4591 11.1583C16.7751 11.3318 17.0421 11.5824 17.2355 11.8866C17.4288 12.1909 17.5422 12.539 17.5652 12.8988C17.5882 13.2586 17.5199 13.6183 17.3668 13.9447H20.2287C20.3183 13.9447 20.4042 13.9803 20.4676 14.0436C20.5309 14.107 20.5665 14.1929 20.5665 14.2825V23.0481C20.5667 23.3628 20.442 23.6646 20.2198 23.8875C19.9976 24.1103 19.6961 24.2359 19.3814 24.2366ZM1.86718 5.02138C1.73128 5.02075 1.60067 5.07402 1.50397 5.16951C1.40728 5.26501 1.35238 5.39494 1.3513 5.53084V23.0481C1.35193 23.1844 1.40658 23.315 1.50328 23.4111C1.59997 23.5072 1.73083 23.5611 1.86718 23.5609H19.3814C19.5169 23.5603 19.6466 23.5059 19.7421 23.4098C19.8376 23.3137 19.8911 23.1836 19.8908 23.0481V14.6187H16.7327C16.6666 14.6186 16.6019 14.5991 16.5467 14.5627C16.4915 14.5262 16.4483 14.4743 16.4223 14.4135C16.3963 14.3527 16.3888 14.2855 16.4006 14.2205C16.4124 14.1554 16.4431 14.0952 16.4888 14.0474C16.6532 13.8742 16.7726 13.6635 16.8368 13.4335C16.9009 13.2035 16.9077 12.9613 16.8567 12.7281C16.8056 12.4948 16.6982 12.2777 16.5439 12.0955C16.3895 11.9134 16.1929 11.7718 15.9712 11.6831C15.7496 11.5945 15.5095 11.5615 15.2721 11.587C15.0348 11.6125 14.8072 11.6957 14.6094 11.8294C14.4116 11.9631 14.2496 12.1433 14.1375 12.354C14.0253 12.5648 13.9665 12.7999 13.9662 13.0386C13.9628 13.414 14.1086 13.7754 14.3716 14.0433C14.4181 14.0908 14.4496 14.1509 14.4621 14.2161C14.4746 14.2814 14.4676 14.3489 14.442 14.4102C14.4164 14.4715 14.3732 14.5239 14.318 14.5608C14.2627 14.5977 14.1978 14.6175 14.1314 14.6177H10.6209C10.5313 14.6177 10.4454 14.5821 10.382 14.5187C10.3187 14.4554 10.2831 14.3694 10.2831 14.2798V11.419C9.95726 11.5714 9.59828 11.6391 9.23936 11.6159C8.88043 11.5927 8.53317 11.4793 8.22971 11.2862C7.92625 11.0932 7.67641 10.8266 7.50332 10.5113C7.33023 10.1961 7.23948 9.8422 7.23948 9.48253C7.23948 9.12285 7.33023 8.76899 7.50332 8.45371C7.67641 8.13842 7.92625 7.8719 8.22971 7.67883C8.53317 7.48575 8.88043 7.37236 9.23936 7.34915C9.59828 7.32594 9.95726 7.39366 10.2831 7.54604V5.02138H1.86718Z" fill="#0297F1"/>
<path d="M10.6242 18.1263C10.5346 18.1263 10.4487 18.0907 10.3853 18.0273C10.322 17.964 10.2864 17.878 10.2864 17.7884V14.284C10.2861 14.2397 10.2946 14.1957 10.3114 14.1546C10.3281 14.1135 10.3528 14.0761 10.384 14.0446C10.447 13.9809 10.5328 13.9448 10.6224 13.9443C10.712 13.9438 10.7981 13.979 10.8618 14.042C10.9255 14.105 10.9616 14.1907 10.9621 14.2803V17.7867C10.9623 17.8312 10.9537 17.8754 10.9368 17.9165C10.9199 17.9577 10.8951 17.9952 10.8637 18.0267C10.8323 18.0583 10.795 18.0833 10.7539 18.1004C10.7128 18.1175 10.6687 18.1263 10.6242 18.1263Z" fill="#0297F1"/>
<path d="M10.6268 24.2228C10.5372 24.2228 10.4512 24.1872 10.3879 24.1239C10.3245 24.0605 10.2889 23.9746 10.2889 23.885V20.3769C10.2889 20.2873 10.3245 20.2014 10.3879 20.138C10.4512 20.0747 10.5372 20.0391 10.6268 20.0391C10.7164 20.0391 10.8023 20.0747 10.8657 20.138C10.929 20.2014 10.9646 20.2873 10.9646 20.3769V23.885C10.9646 23.9746 10.929 24.0605 10.8657 24.1239C10.8023 24.1872 10.7164 24.2228 10.6268 24.2228Z" fill="#0297F1"/>
<path d="M10.6243 14.6186H7.12834C7.03873 14.6186 6.9528 14.583 6.88945 14.5196C6.82609 14.4562 6.7905 14.3703 6.7905 14.2807C6.7905 14.1911 6.82609 14.1052 6.88945 14.0418C6.9528 13.9785 7.03873 13.9429 7.12834 13.9429H10.6243C10.7139 13.9429 10.7998 13.9785 10.8632 14.0418C10.9265 14.1052 10.9621 14.1911 10.9621 14.2807C10.9621 14.3703 10.9265 14.4562 10.8632 14.5196C10.7998 14.583 10.7139 14.6186 10.6243 14.6186Z" fill="#0297F1"/>
<path d="M4.53217 14.6205H1.02305C0.933449 14.6205 0.847518 14.5849 0.784162 14.5216C0.720805 14.4582 0.685211 14.3723 0.685211 14.2827C0.685211 14.1931 0.720805 14.1071 0.784162 14.0438C0.847518 13.9804 0.933449 13.9448 1.02305 13.9448H4.53217C4.62177 13.9448 4.7077 13.9804 4.77106 14.0438C4.83441 14.1071 4.87001 14.1931 4.87001 14.2827C4.87001 14.3723 4.83441 14.4582 4.77106 14.5216C4.7077 14.5849 4.62177 14.6205 4.53217 14.6205Z" fill="#0297F1"/>
<path d="M5.82324 17.6719C5.40332 17.6721 4.99268 17.5484 4.64264 17.3165C4.2926 17.0845 4.01869 16.7545 3.85514 16.3678C3.6916 15.981 3.64566 15.5546 3.72309 15.1419C3.80051 14.7292 3.99786 14.3485 4.29047 14.0473C4.35315 13.9841 4.43824 13.9482 4.52725 13.9474C4.61625 13.9466 4.70198 13.9809 4.76581 14.0429C4.82963 14.105 4.86639 14.1897 4.8681 14.2787C4.8698 14.3677 4.83632 14.4538 4.77493 14.5182C4.57495 14.7241 4.44008 14.9843 4.38714 15.2664C4.33421 15.5485 4.36557 15.84 4.4773 16.1043C4.58903 16.3687 4.77619 16.5943 5.01538 16.7529C5.25458 16.9116 5.53521 16.9962 5.82222 16.9963C6.21026 16.9963 6.58245 16.8423 6.85708 16.5682C7.13172 16.294 7.28637 15.9221 7.28709 15.5341C7.28979 15.1556 7.14286 14.7913 6.8783 14.5206C6.84513 14.4894 6.8186 14.4519 6.8003 14.4102C6.782 14.3685 6.77231 14.3236 6.77181 14.2781C6.77131 14.2326 6.78001 14.1874 6.79739 14.1454C6.81476 14.1033 6.84047 14.0652 6.87294 14.0333C6.90542 14.0014 6.94401 13.9764 6.98639 13.9598C7.02876 13.9432 7.07406 13.9353 7.11955 13.9367C7.16505 13.938 7.2098 13.9485 7.25113 13.9676C7.29246 13.9867 7.32951 14.0139 7.36006 14.0476C7.7493 14.4448 7.96592 14.9797 7.96276 15.5358C7.96133 16.1025 7.73535 16.6455 7.33433 17.0459C6.9333 17.4463 6.38993 17.6714 5.82324 17.6719Z" fill="#0297F1"/>
<path d="M11.8783 21.2263C11.3231 21.2265 10.7898 21.01 10.3918 20.623C10.3585 20.5925 10.3317 20.5557 10.3129 20.5147C10.2941 20.4737 10.2836 20.4293 10.2822 20.3843C10.2808 20.3392 10.2885 20.2943 10.3047 20.2522C10.3209 20.2101 10.3454 20.1717 10.3768 20.1392C10.4081 20.1067 10.4456 20.0809 10.487 20.0631C10.5285 20.0454 10.5731 20.0361 10.6182 20.0359C10.6633 20.0357 10.708 20.0445 10.7497 20.0618C10.7913 20.0792 10.8291 20.1046 10.8607 20.1368C11.0666 20.3351 11.3262 20.4687 11.6073 20.5209C11.8883 20.5731 12.1785 20.5417 12.4419 20.4306C12.7053 20.3195 12.9303 20.1335 13.089 19.8958C13.2478 19.658 13.3333 19.3789 13.3349 19.093C13.3365 18.8072 13.2543 18.5271 13.0983 18.2875C12.9423 18.048 12.7194 17.8595 12.4574 17.7453C12.1953 17.6312 11.9054 17.5965 11.6238 17.6454C11.3421 17.6944 11.0811 17.825 10.8729 18.0209C10.8267 18.0703 10.7667 18.1046 10.7008 18.1195C10.6348 18.1345 10.5659 18.1292 10.503 18.1046C10.44 18.0799 10.3859 18.0369 10.3477 17.9812C10.3094 17.9254 10.2888 17.8595 10.2884 17.7919V17.7888C10.2885 17.7435 10.2977 17.6986 10.3154 17.6569C10.3332 17.6151 10.3592 17.5774 10.3918 17.5459C10.6439 17.3031 10.9518 17.1258 11.2884 17.0296C11.625 16.9334 11.98 16.9213 12.3224 16.9943C12.6648 17.0673 12.984 17.2232 13.2521 17.4484C13.5201 17.6735 13.7289 17.961 13.86 18.2855C13.9911 18.6101 14.0405 18.9619 14.004 19.3101C13.9675 19.6582 13.8461 19.9921 13.6504 20.2824C13.4548 20.5727 13.1909 20.8106 12.882 20.9752C12.573 21.1397 12.2284 21.226 11.8783 21.2263Z" fill="#0297F1"/>
</svg>
