<svg width="23" height="15" viewBox="0 0 23 15" fill="none" xmlns="http://www.w3.org/2000/svg">
<path fill-rule="evenodd" clip-rule="evenodd" d="M0.562569 7.50001C0.562569 7.29281 0.644878 7.0941 0.791391 6.94758C0.937904 6.80107 1.13662 6.71876 1.34382 6.71876H19.7704L14.8532 1.80314C14.7806 1.7305 14.7229 1.64426 14.6836 1.54936C14.6443 1.45445 14.6241 1.35273 14.6241 1.25001C14.6241 1.14729 14.6443 1.04557 14.6836 0.950661C14.7229 0.855756 14.7806 0.769523 14.8532 0.696885C14.9258 0.624248 15.0121 0.566629 15.107 0.527318C15.2019 0.488007 15.3036 0.467773 15.4063 0.467773C15.509 0.467773 15.6108 0.488007 15.7057 0.527318C15.8006 0.566629 15.8868 0.624248 15.9594 0.696885L22.2094 6.94688C22.2822 7.01946 22.3399 7.10567 22.3793 7.20058C22.4187 7.2955 22.439 7.39725 22.439 7.50001C22.439 7.60277 22.4187 7.70452 22.3793 7.79944C22.3399 7.89435 22.2822 7.98056 22.2094 8.05313L15.9594 14.3031C15.8868 14.3758 15.8006 14.4334 15.7057 14.4727C15.6108 14.512 15.509 14.5322 15.4063 14.5322C15.3036 14.5322 15.2019 14.512 15.107 14.4727C15.0121 14.4334 14.9258 14.3758 14.8532 14.3031C14.7806 14.2305 14.7229 14.1443 14.6836 14.0494C14.6443 13.9545 14.6241 13.8527 14.6241 13.75C14.6241 13.6473 14.6443 13.5456 14.6836 13.4507C14.7229 13.3558 14.7806 13.2695 14.8532 13.1969L19.7704 8.28126H1.34382C1.13662 8.28126 0.937904 8.19895 0.791391 8.05244C0.644878 7.90592 0.562569 7.70721 0.562569 7.50001Z" fill="white"/>
</svg>
